<svg width="26" height="26" viewBox="0 0 26 26" fill="none" xmlns="http://www.w3.org/2000/svg">
<path d="M15.999 10.501V11.501C15.999 11.767 15.765 12.001 15.499 12.001H11.999V15.501C11.999 15.767 11.765 16.001 11.499 16.001H10.499C10.233 16.001 9.999 15.767 9.999 15.501V12.001H6.499C6.233 12.001 5.999 11.767 5.999 11.501V10.501C5.999 10.235 6.233 10.001 6.499 10.001H9.999V6.501C9.999 6.235 10.233 6.001 10.499 6.001H11.499C11.765 6.001 11.999 6.235 11.999 6.501V10.001H15.499C15.765 10.001 15.999 10.235 15.999 10.501ZM17.999 11.001C17.999 7.142 14.858 4.001 10.999 4.001C7.14 4.001 3.999 7.142 3.999 11.001C3.999 14.86 7.14 18.001 10.999 18.001C14.858 18.001 17.999 14.86 17.999 11.001ZM25.999 24.001C25.999 25.11 25.108 26.001 23.999 26.001C23.468 26.001 22.952 25.782 22.593 25.407L17.234 20.063C15.406 21.329 13.218 22 11 22C4.922 22 0 17.078 0 11C0 4.922 4.922 0 11 0C17.078 0 22 4.922 22 11C22 13.219 21.328 15.406 20.063 17.234L25.422 22.593C25.781 22.952 26 23.468 26 23.999L25.999 24.001Z" fill="white"/>
</svg>
